<svg width="196" height="196" viewBox="0 0 196 196" fill="none" xmlns="http://www.w3.org/2000/svg">
<g filter="url(#filter0_d_4_446)">
<path d="M50 41C50 32.1634 57.1634 25 66 25H130C138.837 25 146 32.1634 146 41V105C146 113.837 138.837 121 130 121H66C57.1634 121 50 113.837 50 105V41Z" fill="url(#paint0_linear_4_446)"/>
<path d="M119 97.5H77V48.5H119V97.5Z" stroke="#E5E7EB"/>
<path d="M119 96.5H77V48.5H119V96.5Z" stroke="#E5E7EB"/>
<path d="M77.0039 72.4813C77.0114 60.8938 86.4031 51.5 98 51.5C109.597 51.5 119 60.9031 119 72.5C119 84.0969 109.606 93.4906 98.0094 93.5H81.7747C79.1413 93.5 77.0078 91.3719 77.0039 88.7375H77V72.4813H77.0039ZM109.119 66.5656C109.119 62.8437 105.781 60.1437 102.256 60.1437C98.9844 60.1437 96.0875 62.6094 95.6844 65.7594C95.6656 66.1156 95.6469 66.2281 95.6469 66.5563C95.6375 68.5344 95.6469 70.5687 95.5719 72.5938C95.6563 75.0406 95.6656 77.4781 95.5719 79.775C95.5719 82.3156 93.7531 84.0406 91.3812 84.0406C89.0094 84.0406 87.0875 82.1469 87.0875 79.775C87.1344 77.1781 89.2063 75.5281 91.6344 75.4531H91.6531L94.1188 75.4344V71.9375L91.6531 71.9562C87.2375 71.9187 83.7238 75.3781 83.5963 79.775C83.5963 84.05 87.1156 87.5469 91.3812 87.5469C95.4125 87.5469 98.7594 84.3969 99.125 80.4594L99.1437 75.4437L102.2 75.4156C104.572 75.4344 104.544 71.8719 102.181 71.9188L99.1437 71.9469C99.1437 71.3469 99.1531 70.7469 99.1531 70.1469C99.1625 68.9562 99.1625 67.7656 99.1437 66.5656C99.1531 65.0187 100.625 63.6406 102.256 63.6406C103.897 63.6406 105.622 64.4562 105.622 66.5656C105.622 66.8656 105.613 67.0437 105.594 67.1562C105.416 68.1406 106.081 69.0687 107.066 69.2094C108.059 69.35 108.959 68.6375 109.053 67.6531C109.109 67.2594 109.119 66.9125 109.119 66.5656Z" fill="white"/>
</g>
<defs>
<filter id="filter0_d_4_446" x="0" y="0" width="196" height="196" filterUnits="userSpaceOnUse" color-interpolation-filters="sRGB">
<feFlood flood-opacity="0" result="BackgroundImageFix"/>
<feColorMatrix in="SourceAlpha" type="matrix" values="0 0 0 0 0 0 0 0 0 0 0 0 0 0 0 0 0 0 127 0" result="hardAlpha"/>
<feOffset dy="25"/>
<feGaussianBlur stdDeviation="25"/>
<feColorMatrix type="matrix" values="0 0 0 0 0 0 0 0 0 0 0 0 0 0 0 0 0 0 0.25 0"/>
<feBlend mode="normal" in2="BackgroundImageFix" result="effect1_dropShadow_4_446"/>
<feBlend mode="normal" in="SourceGraphic" in2="effect1_dropShadow_4_446" result="shape"/>
</filter>
<linearGradient id="paint0_linear_4_446" x1="16.0589" y1="58.9411" x2="83.9411" y2="126.823" gradientUnits="userSpaceOnUse">
<stop stop-color="#51A2DA"/>
<stop offset="1" stop-color="#294172"/>
</linearGradient>
</defs>
</svg>
